<mxfile host="Electron" agent="Mozilla/5.0 (Windows NT 10.0; Win64; x64) AppleWebKit/537.36 (KHTML, like Gecko) draw.io/24.7.17 Chrome/128.0.6613.36 Electron/32.0.1 Safari/537.36" version="24.7.17">
  <diagram name="Page-1" id="qQgYs6vIY1Ci10BiVfxs">
    <mxGraphModel dx="2049" dy="1194" grid="1" gridSize="10" guides="1" tooltips="1" connect="1" arrows="1" fold="1" page="1" pageScale="1" pageWidth="850" pageHeight="1100" math="0" shadow="0">
      <root>
        <mxCell id="0" />
        <mxCell id="1" parent="0" />
        <mxCell id="vGtdWYx5ho8JE4TgwHjV-22" style="edgeStyle=orthogonalEdgeStyle;rounded=0;orthogonalLoop=1;jettySize=auto;html=1;endArrow=ERzeroToOne;endFill=0;startArrow=ERmany;startFill=0;" edge="1" parent="1" source="vGtdWYx5ho8JE4TgwHjV-1" target="vGtdWYx5ho8JE4TgwHjV-5">
          <mxGeometry relative="1" as="geometry" />
        </mxCell>
        <mxCell id="vGtdWYx5ho8JE4TgwHjV-1" value="&lt;span style=&quot;font-weight: 700; text-wrap: nowrap;&quot;&gt;Carros_Manutencao&lt;/span&gt;" style="rounded=1;whiteSpace=wrap;html=1;" vertex="1" parent="1">
          <mxGeometry x="109.94" y="380" width="120" height="40" as="geometry" />
        </mxCell>
        <mxCell id="vGtdWYx5ho8JE4TgwHjV-2" value="&lt;b&gt;&lt;font style=&quot;font-size: 20px;&quot;&gt;Modelo de dados concetual&lt;/font&gt;&lt;/b&gt;&lt;div&gt;&lt;b&gt;&lt;font style=&quot;font-size: 20px;&quot;&gt;&amp;nbsp;Passeios – Serviços de Aluguer de Carros, Lda&lt;/font&gt;&lt;/b&gt;&lt;/div&gt;" style="rounded=0;whiteSpace=wrap;html=1;" vertex="1" parent="1">
          <mxGeometry x="145" width="560" height="80" as="geometry" />
        </mxCell>
        <mxCell id="vGtdWYx5ho8JE4TgwHjV-20" style="edgeStyle=orthogonalEdgeStyle;rounded=0;orthogonalLoop=1;jettySize=auto;html=1;endArrow=ERmany;endFill=0;startArrow=ERzeroToOne;startFill=0;entryX=0;entryY=0.5;entryDx=0;entryDy=0;" edge="1" parent="1" source="vGtdWYx5ho8JE4TgwHjV-3" target="vGtdWYx5ho8JE4TgwHjV-5">
          <mxGeometry relative="1" as="geometry">
            <Array as="points">
              <mxPoint x="89.94" y="159.9999999999999" />
              <mxPoint x="89.94" y="320" />
            </Array>
          </mxGeometry>
        </mxCell>
        <mxCell id="vGtdWYx5ho8JE4TgwHjV-3" value="&lt;span style=&quot;font-weight: 700; text-wrap: nowrap;&quot;&gt;Carros_Status&lt;/span&gt;" style="rounded=1;whiteSpace=wrap;html=1;" vertex="1" parent="1">
          <mxGeometry x="109.94" y="140" width="120" height="40" as="geometry" />
        </mxCell>
        <mxCell id="vGtdWYx5ho8JE4TgwHjV-21" style="edgeStyle=orthogonalEdgeStyle;rounded=0;orthogonalLoop=1;jettySize=auto;html=1;entryX=0.5;entryY=0;entryDx=0;entryDy=0;startArrow=ERzeroToOne;startFill=0;endArrow=ERmany;endFill=0;" edge="1" parent="1" source="vGtdWYx5ho8JE4TgwHjV-4" target="vGtdWYx5ho8JE4TgwHjV-5">
          <mxGeometry relative="1" as="geometry" />
        </mxCell>
        <mxCell id="vGtdWYx5ho8JE4TgwHjV-4" value="&lt;span style=&quot;font-weight: 700; text-wrap: nowrap;&quot;&gt;Carros_Segmento&lt;/span&gt;" style="rounded=1;whiteSpace=wrap;html=1;" vertex="1" parent="1">
          <mxGeometry x="109.94" y="220" width="120" height="40" as="geometry" />
        </mxCell>
        <mxCell id="vGtdWYx5ho8JE4TgwHjV-23" style="edgeStyle=orthogonalEdgeStyle;rounded=0;orthogonalLoop=1;jettySize=auto;html=1;entryX=0;entryY=0.5;entryDx=0;entryDy=0;startArrow=ERzeroToOne;startFill=0;endArrow=ERmany;endFill=0;" edge="1" parent="1" source="vGtdWYx5ho8JE4TgwHjV-5" target="vGtdWYx5ho8JE4TgwHjV-6">
          <mxGeometry relative="1" as="geometry" />
        </mxCell>
        <mxCell id="vGtdWYx5ho8JE4TgwHjV-5" value="&lt;span style=&quot;font-weight: 700; text-wrap: nowrap;&quot;&gt;Carros&lt;/span&gt;" style="rounded=1;whiteSpace=wrap;html=1;" vertex="1" parent="1">
          <mxGeometry x="109.94" y="300" width="120" height="40" as="geometry" />
        </mxCell>
        <mxCell id="vGtdWYx5ho8JE4TgwHjV-25" style="edgeStyle=orthogonalEdgeStyle;rounded=0;orthogonalLoop=1;jettySize=auto;html=1;endArrow=ERone;endFill=0;startArrow=ERmany;startFill=0;" edge="1" parent="1" source="vGtdWYx5ho8JE4TgwHjV-6" target="vGtdWYx5ho8JE4TgwHjV-7">
          <mxGeometry relative="1" as="geometry" />
        </mxCell>
        <mxCell id="vGtdWYx5ho8JE4TgwHjV-6" value="&lt;span style=&quot;font-weight: 700; text-wrap: nowrap;&quot;&gt;Reservas&lt;/span&gt;" style="rounded=1;whiteSpace=wrap;html=1;" vertex="1" parent="1">
          <mxGeometry x="309.94" y="300" width="120" height="40" as="geometry" />
        </mxCell>
        <mxCell id="vGtdWYx5ho8JE4TgwHjV-7" value="&lt;span style=&quot;font-weight: 700; text-wrap: nowrap;&quot;&gt;Reservas_Entrega&lt;/span&gt;" style="rounded=1;whiteSpace=wrap;html=1;" vertex="1" parent="1">
          <mxGeometry x="309.94" y="220" width="120" height="40" as="geometry" />
        </mxCell>
        <mxCell id="vGtdWYx5ho8JE4TgwHjV-8" value="&lt;span style=&quot;font-weight: 700; text-wrap: nowrap;&quot;&gt;Clientes_Info&lt;/span&gt;" style="rounded=1;whiteSpace=wrap;html=1;" vertex="1" parent="1">
          <mxGeometry x="509.94000000000005" y="220" width="120" height="40" as="geometry" />
        </mxCell>
        <mxCell id="vGtdWYx5ho8JE4TgwHjV-9" value="&lt;span style=&quot;font-weight: 700; text-wrap: nowrap;&quot;&gt;Clientes_Morada&lt;/span&gt;" style="rounded=1;whiteSpace=wrap;html=1;" vertex="1" parent="1">
          <mxGeometry x="669.94" y="300" width="120" height="40" as="geometry" />
        </mxCell>
        <mxCell id="vGtdWYx5ho8JE4TgwHjV-32" style="edgeStyle=orthogonalEdgeStyle;rounded=0;orthogonalLoop=1;jettySize=auto;html=1;entryX=0.5;entryY=1;entryDx=0;entryDy=0;startArrow=ERone;startFill=0;endArrow=ERone;endFill=0;" edge="1" parent="1" source="vGtdWYx5ho8JE4TgwHjV-10" target="vGtdWYx5ho8JE4TgwHjV-8">
          <mxGeometry relative="1" as="geometry" />
        </mxCell>
        <mxCell id="vGtdWYx5ho8JE4TgwHjV-34" style="edgeStyle=orthogonalEdgeStyle;rounded=0;orthogonalLoop=1;jettySize=auto;html=1;entryX=0;entryY=0.5;entryDx=0;entryDy=0;startArrow=ERone;startFill=0;endArrow=ERmany;endFill=0;" edge="1" parent="1" source="vGtdWYx5ho8JE4TgwHjV-10" target="vGtdWYx5ho8JE4TgwHjV-9">
          <mxGeometry relative="1" as="geometry" />
        </mxCell>
        <mxCell id="vGtdWYx5ho8JE4TgwHjV-35" value="" style="edgeStyle=orthogonalEdgeStyle;rounded=0;orthogonalLoop=1;jettySize=auto;html=1;endArrow=ERmany;endFill=0;startArrow=ERzeroToOne;startFill=0;" edge="1" parent="1" source="vGtdWYx5ho8JE4TgwHjV-10" target="vGtdWYx5ho8JE4TgwHjV-6">
          <mxGeometry relative="1" as="geometry">
            <Array as="points">
              <mxPoint x="469.94" y="320" />
              <mxPoint x="469.94" y="320" />
            </Array>
          </mxGeometry>
        </mxCell>
        <mxCell id="vGtdWYx5ho8JE4TgwHjV-10" value="&lt;span style=&quot;font-weight: 700; text-wrap: nowrap;&quot;&gt;Clientes&lt;/span&gt;" style="rounded=1;whiteSpace=wrap;html=1;" vertex="1" parent="1">
          <mxGeometry x="509.94000000000005" y="300" width="120" height="40" as="geometry" />
        </mxCell>
        <mxCell id="vGtdWYx5ho8JE4TgwHjV-27" style="edgeStyle=orthogonalEdgeStyle;rounded=0;orthogonalLoop=1;jettySize=auto;html=1;endArrow=ERzeroToOne;endFill=0;startArrow=ERmany;startFill=0;" edge="1" parent="1" source="vGtdWYx5ho8JE4TgwHjV-11" target="vGtdWYx5ho8JE4TgwHjV-13">
          <mxGeometry relative="1" as="geometry" />
        </mxCell>
        <mxCell id="vGtdWYx5ho8JE4TgwHjV-11" value="&lt;span style=&quot;font-weight: 700; text-wrap: nowrap;&quot;&gt;Empregados_Departamento&lt;/span&gt;" style="rounded=1;whiteSpace=wrap;html=1;" vertex="1" parent="1">
          <mxGeometry x="269.94" y="460" width="200" height="40" as="geometry" />
        </mxCell>
        <mxCell id="vGtdWYx5ho8JE4TgwHjV-12" value="&lt;span style=&quot;font-weight: 700; text-wrap: nowrap;&quot;&gt;Empregados_Info&lt;/span&gt;" style="rounded=1;whiteSpace=wrap;html=1;" vertex="1" parent="1">
          <mxGeometry x="509.94000000000005" y="380" width="120" height="40" as="geometry" />
        </mxCell>
        <mxCell id="vGtdWYx5ho8JE4TgwHjV-26" style="edgeStyle=orthogonalEdgeStyle;rounded=0;orthogonalLoop=1;jettySize=auto;html=1;startArrow=ERzeroToOne;startFill=0;endArrow=ERmany;endFill=0;" edge="1" parent="1" source="vGtdWYx5ho8JE4TgwHjV-13" target="vGtdWYx5ho8JE4TgwHjV-6">
          <mxGeometry relative="1" as="geometry" />
        </mxCell>
        <mxCell id="vGtdWYx5ho8JE4TgwHjV-28" style="edgeStyle=orthogonalEdgeStyle;rounded=0;orthogonalLoop=1;jettySize=auto;html=1;startArrow=ERzeroToOne;startFill=0;endArrow=ERmany;endFill=0;" edge="1" parent="1" source="vGtdWYx5ho8JE4TgwHjV-13" target="vGtdWYx5ho8JE4TgwHjV-1">
          <mxGeometry relative="1" as="geometry" />
        </mxCell>
        <mxCell id="vGtdWYx5ho8JE4TgwHjV-30" style="edgeStyle=orthogonalEdgeStyle;rounded=0;orthogonalLoop=1;jettySize=auto;html=1;entryX=0;entryY=0.5;entryDx=0;entryDy=0;startArrow=ERone;startFill=0;endArrow=ERone;endFill=0;" edge="1" parent="1" source="vGtdWYx5ho8JE4TgwHjV-13" target="vGtdWYx5ho8JE4TgwHjV-12">
          <mxGeometry relative="1" as="geometry" />
        </mxCell>
        <mxCell id="vGtdWYx5ho8JE4TgwHjV-13" value="&lt;span style=&quot;font-weight: 700; text-wrap: nowrap;&quot;&gt;Empregados&lt;/span&gt;" style="rounded=1;whiteSpace=wrap;html=1;" vertex="1" parent="1">
          <mxGeometry x="309.94" y="380" width="120" height="40" as="geometry" />
        </mxCell>
      </root>
    </mxGraphModel>
  </diagram>
</mxfile>
